<?xml version="1.0" encoding="UTF-8" standalone="no"?>
<svg
   id="Livello_1"
   data-name="Livello 1"
   viewBox="0 0 24 24"
   version="1.1"
   width="24"
   height="24"
   sodipodi:docname="adguard.svg"
   xml:space="preserve"
   inkscape:version="1.4 (e7c3feb1, 2024-10-09)"
   xmlns:inkscape="http://www.inkscape.org/namespaces/inkscape"
   xmlns:sodipodi="http://sodipodi.sourceforge.net/DTD/sodipodi-0.dtd"
   xmlns="http://www.w3.org/2000/svg"
   xmlns:svg="http://www.w3.org/2000/svg"><defs
     id="defs1" /><sodipodi:namedview
     id="namedview1"
     pagecolor="#ffffff"
     bordercolor="#000000"
     borderopacity="0.25"
     inkscape:showpageshadow="2"
     inkscape:pageopacity="0.0"
     inkscape:pagecheckerboard="0"
     inkscape:deskcolor="#d1d1d1"
     showguides="true"
     inkscape:zoom="11.103505"
     inkscape:cx="9.2763503"
     inkscape:cy="11.843107"
     inkscape:window-width="1344"
     inkscape:window-height="764"
     inkscape:window-x="0"
     inkscape:window-y="38"
     inkscape:window-maximized="0"
     inkscape:current-layer="Livello_1"><sodipodi:guide
       position="-2.9675043,29.495378"
       orientation="-1,0"
       id="guide2"
       inkscape:locked="false"
       inkscape:label=""
       inkscape:color="rgb(0,134,229)" /></sodipodi:namedview><path
     id="Colore_riempimento_1"
     fill="#44739e"
     data-name="Colore riempimento 1"
     class="cls-1"
     d="m 10.84,0.14 h 2 L 13.2,0.2 A 27.32,27.32 0 0 1 21.8,2 c 0.71,0.27 1.4,0.59 2.06,0.88 0.32,8.56 -3.12,16.09 -11.87,21 A 23.66,23.66 0 0 1 2.89,15.09 22.86,22.86 0 0 1 0.15,2.87 26.38,26.38 0 0 1 8.6,0.38 c 0.75,-0.1 1.49,-0.16 2.24,-0.24 z m 0.7,12.59 -0.26,-0.28 c -0.68,-0.79 -1.35,-1.59 -2,-2.38 a 1.93,1.93 0 0 0 -2.81,0 L 11.58,16 18.74,6.6 c 0,-0.06 0,-0.09 -0.07,-0.1 a 0.92,0.92 0 0 0 -1.24,0.26 c -1,1 -1.93,2 -2.89,2.93 z"
     style="fill:#6b9e70;fill-opacity:1" /><path
     id="path1"
     d="M 11.980469,0.140625 V 23.875 a 23.66,23.66 0 0 0 0.0098,0.0059 c 8.75,-4.91 12.189141,-12.44 11.869141,-20.9999996 C 23.199375,2.5908594 22.510781,2.27 21.800781,2 A 27.32,27.32 0 0 0 13.199219,0.19921875 L 12.839844,0.140625 Z"
     style="display:inline;fill:#79b07e;fill-opacity:1" /><path
     d="m 11.54,12.73 -0.26,-0.28 c -0.68,-0.79 -1.35,-1.59 -2,-2.38 a 1.93,1.93 0 0 0 -2.81,0 L 11.58,16 18.74,6.6 c 0,-0.06 0,-0.09 -0.07,-0.1 a 0.92,0.92 0 0 0 -1.24,0.26 c -1,1 -1.93,2 -2.89,2.93 z"
     id="path2"
     style="fill:#f9f9f9" /></svg>
