<?xml version="1.0" encoding="UTF-8" standalone="no"?>
<svg
   width="24"
   height="24"
   viewBox="0 0 24 24"
   version="1.1"
   id="svg1"
   sodipodi:docname="battery-half.svg"
   inkscape:version="1.4 (e7c3feb1, 2024-10-09)"
   xmlns:inkscape="http://www.inkscape.org/namespaces/inkscape"
   xmlns:sodipodi="http://sodipodi.sourceforge.net/DTD/sodipodi-0.dtd"
   xmlns="http://www.w3.org/2000/svg"
   xmlns:svg="http://www.w3.org/2000/svg">
  <defs
     id="defs1" />
  <sodipodi:namedview
     id="namedview1"
     pagecolor="#ffffff"
     bordercolor="#000000"
     borderopacity="0.25"
     inkscape:showpageshadow="2"
     inkscape:pageopacity="0.0"
     inkscape:pagecheckerboard="0"
     inkscape:deskcolor="#d1d1d1"
     inkscape:zoom="9.26"
     inkscape:cx="11.987041"
     inkscape:cy="11.987041"
     inkscape:window-width="1424"
     inkscape:window-height="445"
     inkscape:window-x="923"
     inkscape:window-y="600"
     inkscape:window-maximized="0"
     inkscape:current-layer="svg1" />
  <path
     d="M 16.428,17.153 H 4.806 A 2.809,2.809 0 0 1 2,14.347 V 9.652 a 2.809,2.809 0 0 1 2.806,-2.8 h 11.622 a 2.809,2.809 0 0 1 2.806,2.8 v 4.7 a 2.809,2.809 0 0 1 -2.806,2.801 z"
     id="path1" />
  <path
     d="m 20.926001,9.3360004 h 0.001 c 0.594442,0 1.073,0.478558 1.073,1.0729996 v 3.085 c 0,0.594442 -0.478558,1.073 -1.073,1.073 h -0.001 c -0.594442,0 -1.073,-0.478558 -1.073,-1.073 v -3.085 c 0,-0.5944416 0.478558,-1.0729996 1.073,-1.0729996 z"
     id="Colore_riempimento_1" />
  <path
     d="M 4.806,7.736 A 1.918,1.918 0 0 0 2.89,9.652 v 4.7 a 1.918,1.918 0 0 0 1.916,1.917 h 11.622 a 1.919,1.919 0 0 0 1.916,-1.917 v -4.7 A 1.919,1.919 0 0 0 16.428,7.736 Z"
     id="path2"
     style="fill:#ffffff" />
  <path
     d="m 4.868,8.4099998 h 4.834 c 0.775046,0 1.399,0.6239541 1.399,1.3990001 V 14.094 c 0,0.775046 -0.623954,1.399 -1.399,1.399 H 4.8680001 c -0.775046,0 -1.399,-0.623954 -1.399,-1.399 V 9.8089999 c 0,-0.775046 0.623954,-1.3990001 1.3989999,-1.3990001 z"
     id="path3"
     style="fill:#ffff00" />
</svg>
