<?xml version="1.0" encoding="UTF-8" standalone="no"?>
<svg
   width="24"
   height="24"
   viewBox="0 0 24 24"
   version="1.1"
   id="svg1"
   sodipodi:docname="battery-critical.svg"
   inkscape:version="1.4 (e7c3feb1, 2024-10-09)"
   xmlns:inkscape="http://www.inkscape.org/namespaces/inkscape"
   xmlns:sodipodi="http://sodipodi.sourceforge.net/DTD/sodipodi-0.dtd"
   xmlns="http://www.w3.org/2000/svg"
   xmlns:svg="http://www.w3.org/2000/svg">
  <defs
     id="defs1" />
  <sodipodi:namedview
     id="namedview1"
     pagecolor="#ffffff"
     bordercolor="#000000"
     borderopacity="0.25"
     inkscape:showpageshadow="2"
     inkscape:pageopacity="0.0"
     inkscape:pagecheckerboard="0"
     inkscape:deskcolor="#d1d1d1"
     inkscape:zoom="6.56"
     inkscape:cx="12.042683"
     inkscape:cy="12.042683"
     inkscape:window-width="1424"
     inkscape:window-height="477"
     inkscape:window-x="254"
     inkscape:window-y="181"
     inkscape:window-maximized="0"
     inkscape:current-layer="svg1" />
  <path
     d="M 16.428,6.847 H 4.806 A 2.809,2.809 0 0 0 2,9.652 v 4.7 a 2.809,2.809 0 0 0 2.806,2.806 h 11.622 a 2.809,2.809 0 0 0 2.806,-2.806 v -4.7 A 2.809,2.809 0 0 0 16.428,6.847 Z"
     id="path1" />
  <path
     d="m 20.927,9.336 a 1.077,1.077 0 0 0 -1.074,1.073 v 3.085 a 1.074,1.074 0 0 0 2.147,0 V 10.409 A 1.076,1.076 0 0 0 20.927,9.336 Z"
     id="Colore_riempimento_1" />
  <path
     d="m 18.344,14.347 a 1.918,1.918 0 0 1 -1.916,1.916 H 4.806 A 1.918,1.918 0 0 1 2.89,14.347 V 9.652 A 1.917,1.917 0 0 1 4.806,7.737 h 11.622 a 1.918,1.918 0 0 1 1.916,1.915 z"
     id="path2"
     style="fill:#f9f9f9" />
  <path
     d="m 4.1880001,8.4099998 h 0.579 c 0.398326,0 0.719,0.320674 0.719,0.719 V 14.774 c 0,0.398326 -0.320674,0.719 -0.719,0.719 h -0.579 c -0.398326,0 -0.719,-0.320674 -0.719,-0.719 V 9.1289998 c 0,-0.398326 0.320674,-0.719 0.719,-0.719 z"
     id="path3"
     style="fill:#ff0000" />
</svg>
