<?xml version="1.0" encoding="UTF-8" standalone="no"?>
<svg
   fill="#44739e"
   width="24"
   height="24"
   version="1.1"
   viewBox="0 0 24 24"
   id="svg1"
   sodipodi:docname="christmas-wreath.svg"
   inkscape:version="1.4 (e7c3feb1, 2024-10-09)"
   xmlns:inkscape="http://www.inkscape.org/namespaces/inkscape"
   xmlns:sodipodi="http://sodipodi.sourceforge.net/DTD/sodipodi-0.dtd"
   xmlns="http://www.w3.org/2000/svg"
   xmlns:svg="http://www.w3.org/2000/svg">
  <defs
     id="defs1" />
  <sodipodi:namedview
     id="namedview1"
     pagecolor="#ffffff"
     bordercolor="#000000"
     borderopacity="0.25"
     inkscape:showpageshadow="2"
     inkscape:pageopacity="0.0"
     inkscape:pagecheckerboard="0"
     inkscape:deskcolor="#d1d1d1"
     inkscape:zoom="16.12"
     inkscape:cx="11.972705"
     inkscape:cy="13.08933"
     inkscape:window-width="1440"
     inkscape:window-height="823"
     inkscape:window-x="0"
     inkscape:window-y="38"
     inkscape:window-maximized="0"
     inkscape:current-layer="svg1" />
  <path
     style="fill:#ff0000;stroke-width:0.201613;stroke-linejoin:bevel;stroke-miterlimit:1"
     d="m 15.876032,2.1742298 c -1.060298,0.1298606 -2.197366,0.3727666 -3.049002,1.0348412 -0.278764,0.7369343 0.759412,1.1139716 0.640476,1.8771264 0.128121,0.6504981 -0.453157,1.0484892 -0.627087,1.5938051 -0.05532,0.8634873 1.028142,0.9611131 1.658581,1.0683121 0.810525,0.1514939 1.874536,-0.2668067 1.866691,-1.2181435 -0.07531,-1.1157205 0.465117,-2.1194454 0.700132,-3.168906 10e-4,-0.6080927 -0.560066,-1.2249963 -1.189791,-1.1870353 z"
     id="path2" />
  <path
     style="fill:#ff0000;stroke-width:0.201613;stroke-linejoin:bevel;stroke-miterlimit:1"
     d="M 11.927451,3.1819005 C 10.803682,3.2932602 9.7648819,4.3716838 10.084386,5.5445517 10.280011,6.9699914 12.250793,7.612902 13.248567,6.5799837 14.174102,5.7224991 14.02721,3.9627658 12.807538,3.4417921 12.539183,3.2941688 12.240039,3.166964 11.927451,3.1819005 Z"
     id="path3" />
  <path
     style="fill:#ff0000;stroke-width:0.201613;stroke-linejoin:bevel;stroke-miterlimit:1"
     d="M 8.0019059,2.1744267 C 7.068768,2.1767588 6.5016574,3.3079538 6.9853752,4.0883711 7.4135155,4.8923992 7.4945992,5.7916209 7.5726909,6.680987 7.8777834,8.1764143 9.9585721,7.9333141 10.936129,7.3036046 11.500649,6.5253581 10.201821,5.9022745 10.43583,5.0476075 10.32932,4.2853394 11.378654,3.9128262 11.079062,3.1756001 10.230877,2.5349314 9.0566493,2.2547773 8.0019059,2.1744267 Z"
     id="path4" />
  <path
     style="fill:#ff0000;stroke-width:0.0504032;stroke-linejoin:bevel;stroke-miterlimit:1"
     d="M 11.450884,6.6808393 C 11.06945,6.7323636 10.751354,6.9799064 10.386789,7.090823 10.02887,7.2344803 9.6474987,7.2962185 9.2696159,7.356656 8.8311556,7.4881757 8.6761132,7.964377 8.4673974,8.3221928 8.3272304,8.5843847 8.1474754,8.8847889 8.2866901,9.1864897 8.4232078,9.5027711 8.8264259,9.626616 9.1296881,9.4779665 9.3072807,9.4147642 9.4823809,9.3448799 9.6588135,9.2785743 c 0.062639,0.3062363 0.078358,0.6829804 0.3864975,0.8540337 0.324401,0.192191 0.761448,0.0052 0.884756,-0.3422244 0.381645,-0.7689304 0.777741,-1.5321158 1.132353,-2.3136177 0.128082,-0.3622619 -0.158987,-0.7836075 -0.54356,-0.7958282 -0.02265,1.5e-4 -0.04533,-6.262e-4 -0.06798,-9.84e-5 z"
     id="path5" />
  <path
     style="fill:#ff0000;stroke-width:0.0504032;stroke-linejoin:bevel;stroke-miterlimit:1"
     d="m 12.400129,6.706287 c -0.405116,-0.00503 -0.718634,0.450736 -0.56123,0.8259789 0.381647,0.8177838 0.789893,1.6247858 1.193549,2.4316519 0.173573,0.3375662 0.667697,0.4116922 0.936639,0.1458972 0.194458,-0.1855138 0.197311,-0.4775657 0.253532,-0.717292 0.333863,0.1130674 0.704589,0.3576996 1.057139,0.1656809 0.306558,-0.1639466 0.400246,-0.579476 0.226666,-0.8736395 C 15.318668,8.3064423 15.160838,7.9077154 14.920979,7.5596471 14.656342,7.3094608 14.26697,7.3976869 13.945253,7.2864163 13.458002,7.1746895 13.038716,6.8865333 12.570633,6.7263203 12.514842,6.7123919 12.457604,6.7059424 12.400129,6.706287 Z"
     id="path6" />
  <path
     style="fill:#008000;stroke-width:0.124069;stroke-linejoin:bevel;stroke-miterlimit:1"
     d="m 16.57733,4.8963826 c -0.664562,0.1280638 -0.604141,0.9072657 -0.641429,1.4247392 0.0483,0.3909774 -0.07982,0.7642862 -0.372693,1.0278139 -0.372418,0.439204 0.07178,1.1495792 0.604232,1.0418686 -0.253411,0.8760111 0.457145,1.8822867 1.364401,1.9102337 -0.629272,0.697231 -0.370204,1.881622 0.436182,2.323638 -0.840262,0.426377 -1.033357,1.61158 -0.457264,2.326302 -0.89464,0.07819 -1.596234,1.087323 -1.339684,1.941857 -0.883592,-0.293267 -1.850274,0.460066 -1.946703,1.342228 C 13.529653,17.655867 12.354154,17.905111 11.91273,18.686996 11.487498,17.877618 10.274377,17.652336 9.5998759,18.270079 9.5317996,17.437061 8.7238028,16.762073 7.8872567,16.869572 7.5341753,17.012868 7.7292563,16.686746 7.6965483,16.471314 7.6794423,15.722765 7.0583882,15.029098 6.3229393,14.948555 6.9349594,14.225102 6.5827555,13.027619 5.8126066,12.60323 6.6851078,12.212606 7.0498949,10.995571 6.4253208,10.237913 6.4986085,10.150682 6.8613914,10.140036 7.0106525,10.006979 7.6003886,9.6756548 7.9688823,8.9143174 7.7481632,8.2557091 8.3332828,8.3199721 8.6302895,7.5229598 8.2071233,7.1461112 7.644577,6.6500937 8.154977,5.7092284 7.5589087,5.2396334 7.2462377,5.0413193 6.8294347,5.2200058 6.6807295,5.5048562 5.8314369,5.2793095 4.9172579,6.068131 5.0343857,6.947285 5.1531032,7.2654298 4.838411,7.1718999 4.6317656,7.244131 3.8508797,7.4575426 3.4061576,8.4488201 3.8047166,9.1662386 2.9502959,9.4474459 2.6093012,10.615556 3.2099062,11.297183 c 0.080736,0.13142 -0.2294864,0.212387 -0.2788859,0.358442 -0.506789,0.600766 -0.3799817,1.64326 0.329923,2.027639 -0.6757852,0.671711 -0.2962965,1.910928 0.5352919,2.21229 -0.4468908,0.824105 0.2194871,1.949325 1.1511564,1.97348 -0.219739,0.877858 0.6593791,1.768645 1.5427507,1.623081 0.1887752,0.02987 0.088564,0.451503 0.2627995,0.601567 0.3538598,0.60653 1.1860617,0.887507 1.8150008,0.541108 0.2666478,0.902132 1.5356884,1.165407 2.2017484,0.563886 0.454114,0.772144 1.651732,0.867956 2.21544,0.164053 0.126883,-0.292908 0.325563,0.08299 0.524993,0.108561 0.685189,0.315056 1.564462,-0.09425 1.797554,-0.804635 0.818586,0.514599 1.960912,-0.22551 1.999287,-1.145825 0.905398,0.197256 1.78547,-0.691287 1.588913,-1.59485 0.883581,-0.05743 1.608617,-1.06502 1.195017,-1.898845 -0.102521,-0.216472 0.386163,-0.211312 0.460778,-0.423702 0.515013,-0.492048 0.531223,-1.362803 0.05501,-1.878853 0.762741,-0.454136 0.828152,-1.629292 0.147937,-2.193025 -0.302402,-0.122401 0.02512,-0.287941 0.07936,-0.471803 C 21.214136,10.356175 20.717756,9.4414241 20.055516,9.175568 20.550668,8.3423726 19.798116,7.2583375 18.89079,7.2060862 19.049019,6.6464084 18.744228,6.0950975 18.27226,5.7991577 17.993413,5.6028118 17.630626,5.5468362 17.302846,5.6067531 17.290446,5.2081007 16.995303,4.8682609 16.57733,4.8963826 Z"
     id="path7" />
  <path
     d="M 21.559,12.494 A 1.479,1.479 0 0 0 21,11.336 1.52,1.52 0 0 0 20.369,9.091 1.426,1.426 0 0 0 20.263,7.791 1.519,1.519 0 0 0 19.211,7.054 1.585,1.585 0 0 0 18.755,5.826 1.51,1.51 0 0 0 17.527,5.37 1.444,1.444 0 0 0 16.927,4.411 1.719,1.719 0 0 0 16.898,2.458 1.261,1.261 0 0 0 15.806,2 8.064,8.064 0 0 0 12.506,3.129 2.089,2.089 0 0 0 11.427,3.119 8.023,8.023 0 0 0 8.089,2 1.246,1.246 0 0 0 6.966,2.527 1.712,1.712 0 0 0 6.948,4.5 1.447,1.447 0 0 0 6.475,5.371 1.572,1.572 0 0 0 4.791,7.056 1.487,1.487 0 0 0 3.739,7.793 1.681,1.681 0 0 0 3.633,9.093 1.4,1.4 0 0 0 2.791,10.075 1.447,1.447 0 0 0 3,11.336 1.6,1.6 0 0 0 2.439,12.528 1.481,1.481 0 0 0 3,13.686 a 1.52,1.52 0 0 0 0.631,2.245 1.426,1.426 0 0 0 0.106,1.3 1.519,1.519 0 0 0 1.052,0.737 1.585,1.585 0 0 0 0.456,1.228 1.513,1.513 0 0 0 1.228,0.456 1.491,1.491 0 0 0 0.738,1.048 1.681,1.681 0 0 0 1.3,0.1 1.4,1.4 0 0 0 0.983,0.842 1.447,1.447 0 0 0 1.263,-0.21 1.606,1.606 0 0 0 1.19,0.568 1.922,1.922 0 0 0 1.3,-0.6 1.574,1.574 0 0 0 1.263,0.21 1.482,1.482 0 0 0 0.982,-0.842 1.425,1.425 0 0 0 1.3,-0.1 1.523,1.523 0 0 0 0.737,-1.052 1.586,1.586 0 0 0 1.228,-0.457 1.507,1.507 0 0 0 0.456,-1.227 1.49,1.49 0 0 0 1.052,-0.737 1.681,1.681 0 0 0 0.106,-1.3 1.4,1.4 0 0 0 0.842,-0.982 A 1.447,1.447 0 0 0 21,13.651 1.481,1.481 0 0 0 21.561,12.493 Z M 16.3,9.652 a 1.6,1.6 0 0 0 0.948,0.7 1.607,1.607 0 0 0 -0.176,1.157 1.812,1.812 0 0 0 0.632,1.018 1.64,1.64 0 0 0 -0.632,1.017 1.476,1.476 0 0 0 0.176,1.158 1.7,1.7 0 0 0 -0.948,0.7 1.739,1.739 0 0 0 -0.28,1.158 1.735,1.735 0 0 0 -1.158,0.281 1.592,1.592 0 0 0 -0.7,0.947 1.715,1.715 0 0 0 -2.175,0.456 A 1.638,1.638 0 0 0 10.97,17.613 1.476,1.476 0 0 0 9.812,17.788 1.7,1.7 0 0 0 9.112,16.841 1.735,1.735 0 0 0 7.954,16.56 1.73,1.73 0 0 0 7.673,15.403 1.588,1.588 0 0 0 6.726,14.703 1.61,1.61 0 0 0 6.9,13.546 1.808,1.808 0 0 0 6.269,12.529 1.808,1.808 0 0 0 6.9,11.512 1.472,1.472 0 0 0 6.725,10.354 1.7,1.7 0 0 0 7.672,9.654 1.73,1.73 0 0 0 7.953,8.497 1.554,1.554 0 0 0 8.326,8.504 L 7.773,9.617 a 0.392,0.392 0 0 0 0.07,0.386 0.319,0.319 0 0 0 0.386,0.07 L 9.6,9.512 9.88,10.845 c 0,0.141 0.141,0.246 0.281,0.281 h 0.035 a 0.486,0.486 0 0 0 0.351,-0.176 l 1.429,-2.859 1.412,2.824 a 0.338,0.338 0 0 0 0.316,0.211 h 0.07 a 0.379,0.379 0 0 0 0.281,-0.281 l 0.281,-1.368 1.368,0.561 A 0.344,0.344 0 0 0 16.16,9.582 L 15.616,8.5 a 1.583,1.583 0 0 0 0.4,0 1.73,1.73 0 0 0 0.28,1.157 z M 9.22,8.126 C 9.241,8.109 9.261,8.091 9.281,8.073 9.316,8.038 9.316,8.003 9.351,7.968 L 9.384,7.92 A 4.618,4.618 0 0 0 11.07,7.442 L 11.513,7.221 11.546,7.227 10.334,9.687 10.193,8.95 C 10.158,8.85 10.123,8.74 10.018,8.705 A 0.316,0.316 0 0 0 9.843,8.67 0.213,0.213 0 0 1 9.7,8.635 l -0.912,0.35 z m 3.113,-0.895 c 0.035,0 0.035,0 0.07,0.036 l 0.421,0.21 a 4.062,4.062 0 0 0 1.684,0.491 L 15.07,9.091 14.157,8.74 c -0.07,-0.07 -0.175,-0.035 -0.281,0 a 0.405,0.405 0 0 0 -0.175,0.245 l -0.14,0.737 z m 3.543,-4.525 a 0.666,0.666 0 0 1 0.456,0.175 c 0.281,0.316 0.211,0.772 -0.105,1.369 a 5.12,5.12 0 0 0 -0.386,2.315 0.666,0.666 0 0 1 -0.6,0.631 0.511,0.511 0 0 1 -0.211,0.035 H 14.785 A 4.235,4.235 0 0 1 13.234,6.824 2.071,2.071 0 0 0 13.982,5.7 l 0.005,-0.02 c 0.006,-0.023 0.011,-0.046 0.016,-0.07 0.005,-0.024 0.015,-0.069 0.02,-0.1 0.005,-0.031 0.007,-0.043 0.01,-0.065 l 0.006,-0.047 c 0,-0.026 0.005,-0.052 0.007,-0.078 V 5.283 q 0,-0.058 0,-0.117 0,-0.059 0,-0.117 V 5.014 c 0,-0.027 0,-0.055 -0.007,-0.082 V 4.895 c 0,-0.027 -0.007,-0.053 -0.012,-0.08 C 14.022,4.788 14.013,4.737 14.004,4.698 L 13.997,4.669 C 13.99,4.639 13.982,4.609 13.973,4.58 L 13.967,4.559 C 13.957,4.525 13.945,4.49 13.933,4.459 V 4.452 C 13.92,4.417 13.907,4.383 13.892,4.352 13.877,4.321 13.868,4.298 13.855,4.271 L 13.85,4.26 a 2.357,2.357 0 0 0 -0.6,-0.772 7.7,7.7 0 0 1 2.631,-0.772 z m -3.523,1.113 a 0.308,0.308 0 0 0 0.086,0.045 1.331,1.331 0 0 1 0.24,0.1 1.4,1.4 0 0 1 -0.128,2.461 1.43,1.43 0 0 1 -0.183,0.068 2.093,2.093 0 0 1 -0.421,0.07 A 1.37,1.37 0 0 1 11.647,6.53 0.3,0.3 0 0 0 11.56,6.493 1.4,1.4 0 0 1 10.575,5.457 V 5.447 5.421 L 10.568,5.382 V 5.357 5.316 5.292 5.246 5.226 c 0,-0.022 0,-0.044 0,-0.066 0,-0.022 0,-0.062 0,-0.092 V 5.027 4.996 a 1.4,1.4 0 0 1 1.8,-1.179 z M 7.527,2.919 A 0.564,0.564 0 0 1 7.983,2.708 h 0.07 A 7.669,7.669 0 0 1 10.684,3.48 L 10.629,3.526 A 2.115,2.115 0 0 0 9.877,4.788 V 4.806 C 9.872,4.837 9.867,4.867 9.863,4.897 v 0.031 c 0,0.029 -0.006,0.057 -0.008,0.086 v 0.032 c 0,0.039 0,0.079 0,0.118 0,0.039 0,0.078 0,0.117 v 0.037 c 0,0.026 0,0.052 0.007,0.078 l 0.006,0.048 c 0,0.021 0.006,0.042 0.01,0.063 0.004,0.021 0.012,0.068 0.019,0.1 l 0.018,0.078 v 0 a 2.244,2.244 0 0 0 0.764,1.183 Q 10.574,6.925 10.466,6.976 A 3.961,3.961 0 0 1 9.328,7.257 0.371,0.371 0 0 0 9.181,7.228 H 8.9 A 0.992,0.992 0 0 0 8.685,7.2 C 8.085,7.025 8.085,6.639 8.085,6.534 A 5.841,5.841 0 0 0 7.769,4.464 0.281,0.281 0 0 0 7.714,4.394 C 7.689,4.337 7.67,4.302 7.664,4.294 7.313,3.694 7.278,3.241 7.524,2.926 Z m 12.629,10.416 a 0.3,0.3 0 0 0 -0.245,0.281 0.334,0.334 0 0 0 0.14,0.351 0.782,0.782 0 0 1 0.316,0.877 0.8,0.8 0 0 1 -0.7,0.6 0.352,0.352 0 0 0 -0.281,0.211 0.431,0.431 0 0 0 0.071,0.351 0.8,0.8 0 0 1 0.07,0.947 0.777,0.777 0 0 1 -0.842,0.386 0.408,0.408 0 0 0 -0.351,0.14 0.324,0.324 0 0 0 -0.035,0.351 0.772,0.772 0 0 1 -0.175,0.912 0.759,0.759 0 0 1 -0.912,0.176 0.322,0.322 0 0 0 -0.351,0.035 0.358,0.358 0 0 0 -0.141,0.35 0.733,0.733 0 0 1 -0.385,0.842 0.8,0.8 0 0 1 -0.948,-0.07 0.334,0.334 0 0 0 -0.35,-0.07 0.3,0.3 0 0 0 -0.211,0.281 0.792,0.792 0 0 1 -0.6,0.7 0.78,0.78 0 0 1 -0.877,-0.315 0.45,0.45 0 0 0 -0.349,-0.144 0.343,0.343 0 0 0 -0.281,0.246 0.829,0.829 0 0 1 -1.543,0 0.3,0.3 0 0 0 -0.281,-0.246 H 10.86 a 1.04,1.04 0 0 0 -0.351,0.106 0.781,0.781 0 0 1 -0.877,0.315 0.794,0.794 0 0 1 -0.6,-0.7 0.348,0.348 0 0 0 -0.211,-0.281 0.431,0.431 0 0 0 -0.35,0.07 0.8,0.8 0 0 1 -0.948,0.07 A 0.777,0.777 0 0 1 7.138,19.265 0.4,0.4 0 0 0 7,18.914 0.322,0.322 0 0 0 6.649,18.879 0.772,0.772 0 0 1 5.737,18.703 0.76,0.76 0 0 1 5.562,17.791 0.324,0.324 0 0 0 5.527,17.44 0.359,0.359 0 0 0 5.176,17.3 0.778,0.778 0 0 1 4.334,16.914 0.8,0.8 0 0 1 4.404,15.967 0.334,0.334 0 0 0 4.475,15.616 0.307,0.307 0 0 0 4.194,15.406 0.793,0.793 0 0 1 3.494,14.806 0.783,0.783 0 0 1 3.81,13.929 0.45,0.45 0 0 0 3.95,13.578 0.339,0.339 0 0 0 3.7,13.3 0.829,0.829 0 0 1 3.7,11.756 0.3,0.3 0 0 0 3.946,11.476 0.334,0.334 0 0 0 3.806,11.125 0.783,0.783 0 0 1 3.49,10.248 0.8,0.8 0 0 1 4.19,9.648 0.348,0.348 0 0 0 4.47,9.438 0.433,0.433 0 0 0 4.4,9.087 0.861,0.861 0 0 1 4.33,8.14 0.777,0.777 0 0 1 5.172,7.754 0.408,0.408 0 0 0 5.523,7.614 0.548,0.548 0 0 0 5.633,7.2 0.772,0.772 0 0 1 5.808,6.288 0.759,0.759 0 0 1 6.72,6.112 0.32,0.32 0 0 0 7.071,6.077 0.358,0.358 0 0 0 7.212,5.727 0.715,0.715 0 0 1 7.25,5.356 6.489,6.489 0 0 1 7.35,6.568 1.385,1.385 0 0 0 8.126,7.768 1.008,1.008 0 0 1 7.49,7.514 0.338,0.338 0 0 0 6.999,7.514 0.374,0.374 0 0 0 7,8 1.007,1.007 0 0 1 7.07,9.228 1.026,1.026 0 0 1 5.913,9.614 a 0.4,0.4 0 0 0 -0.456,0.21 0.348,0.348 0 0 0 0.175,0.456 0.938,0.938 0 0 1 0.526,1.088 0.978,0.978 0 0 1 -0.912,0.806 0.347,0.347 0 0 0 -0.316,0.351 0.921,0.921 0 0 0 0.211,0.456 0.978,0.978 0 0 1 0.912,0.807 0.938,0.938 0 0 1 -0.526,1.088 0.348,0.348 0 0 0 -0.176,0.456 0.365,0.365 0 0 0 0.456,0.21 1.025,1.025 0 0 1 1.158,0.386 0.962,0.962 0 0 1 -0.065,1.232 0.338,0.338 0 0 0 0,0.491 0.374,0.374 0 0 0 0.491,0 1.007,1.007 0 0 1 1.228,-0.07 1.026,1.026 0 0 1 0.381,1.157 0.4,0.4 0 0 0 0.21,0.456 0.347,0.347 0 0 0 0.456,-0.175 1,1 0 0 1 1.895,0.386 0.352,0.352 0 0 0 0.7,0 0.978,0.978 0 0 1 0.807,-0.912 0.938,0.938 0 0 1 1.088,0.526 0.347,0.347 0 0 0 0.456,0.175 0.365,0.365 0 0 0 0.21,-0.456 1.024,1.024 0 0 1 0.386,-1.157 0.961,0.961 0 0 1 1.228,0.07 0.339,0.339 0 0 0 0.491,0 0.374,0.374 0 0 0 0,-0.491 1.007,1.007 0 0 1 -0.07,-1.228 1.024,1.024 0 0 1 1.157,-0.386 0.4,0.4 0 0 0 0.456,-0.21 0.348,0.348 0 0 0 -0.175,-0.456 1,1 0 0 1 0.386,-1.9 0.353,0.353 0 0 0 0,-0.7 0.977,0.977 0 0 1 -0.912,-0.807 0.938,0.938 0 0 1 0.526,-1.088 0.348,0.348 0 0 0 0.175,-0.456 0.365,0.365 0 0 0 -0.456,-0.21 1.026,1.026 0 0 1 -1.157,-0.386 0.961,0.961 0 0 1 0.07,-1.228 0.339,0.339 0 0 0 0,-0.491 0.374,0.374 0 0 0 -0.491,0 0.974,0.974 0 0 1 -0.772,0.245 1.263,1.263 0 0 0 0.844,-1.206 0.831,0.831 0 0 0 0,-0.122 c 0,-0.181 0.006,-0.346 0.014,-0.5 A 6.133,6.133 0 0 1 16.594,5.39 C 16.6,5.358 16.606,5.326 16.613,5.295 a 0.661,0.661 0 0 1 0.105,0.526 0.407,0.407 0 0 0 0.141,0.351 0.322,0.322 0 0 0 0.35,0.035 0.771,0.771 0 0 1 0.912,0.175 0.759,0.759 0 0 1 0.179,0.918 0.324,0.324 0 0 0 0.035,0.351 0.359,0.359 0 0 0 0.351,0.14 0.779,0.779 0 0 1 0.842,0.386 0.8,0.8 0 0 1 -0.071,0.947 0.336,0.336 0 0 0 -0.07,0.351 0.306,0.306 0 0 0 0.281,0.211 0.756,0.756 0 0 1 0.7,0.6 0.782,0.782 0 0 1 -0.316,0.877 0.36,0.36 0 0 0 -0.141,0.351 0.344,0.344 0 0 0 0.246,0.281 0.829,0.829 0 0 1 0,1.543"
     id="path1"
     style="fill:#000000" />
</svg>
