<?xml version="1.0" encoding="UTF-8" standalone="no"?>
<svg
   width="24px"
   fill="#44739e"
   height="24px"
   viewBox="0 0 24 24"
   version="1.1"
   id="svg1"
   sodipodi:docname="chromecast.svg"
   xml:space="preserve"
   inkscape:version="1.4 (e7c3feb1, 2024-10-09)"
   xmlns:inkscape="http://www.inkscape.org/namespaces/inkscape"
   xmlns:sodipodi="http://sodipodi.sourceforge.net/DTD/sodipodi-0.dtd"
   xmlns="http://www.w3.org/2000/svg"
   xmlns:svg="http://www.w3.org/2000/svg"><defs
     id="defs1" /><sodipodi:namedview
     id="namedview1"
     pagecolor="#ffffff"
     bordercolor="#000000"
     borderopacity="0.25"
     inkscape:showpageshadow="2"
     inkscape:pageopacity="0.0"
     inkscape:pagecheckerboard="0"
     inkscape:deskcolor="#d1d1d1"
     inkscape:zoom="9.2"
     inkscape:cx="14.23913"
     inkscape:cy="-9.4021739"
     inkscape:window-width="1504"
     inkscape:window-height="860"
     inkscape:window-x="0"
     inkscape:window-y="38"
     inkscape:window-maximized="0"
     inkscape:current-layer="svg1" /><path
     d="M 20.072,2.246 V 2 h -3.53 v 0.388 l -0.99,0.213 V 2.61 H 11.069 A 1.144,1.144 0 0 0 9.925,3.754 V 6.04 A 8.008,8.008 0 1 0 11.451,6.011 V 4.135 h 4.1 v 0.024 l 0.99,0.212 v 0.418 h 3.53 V 4.543 h 1.089 v -2.3 z"
     id="path7"
     style="fill:#000000" /><path
     d="M 11.608,5.259 Z"
     id="path6"
     style="fill:#000000" /><path
     d="m 20.818,4.194 h -0.567 v -1.6 h 0.567 z"
     id="path9"
     style="fill:#ffffff" /><path
     d="M 15.972,8.872 A 7.246,7.246 0 0 1 10.85,21.238 v 0 A 7.244,7.244 0 1 1 15.967,8.872 Z"
     id="path8"
     style="fill:#ffffff" /><path
     d="m 10.845,7.109 a 6.883,6.883 0 0 0 -6.884,6.884 v 0 a 6.885,6.885 0 0 0 13.769,0 v 0 A 6.892,6.892 0 0 0 10.845,7.109 Z"
     id="path1"
     style="fill:#1a1a1a" /><path
     d="m 12.238,13.732 a 1.389,1.389 0 1 1 -1.389,-1.389 1.389,1.389 0 0 1 1.385,1.389 z"
     id="path4"
     style="fill:#1c72e9;fill-opacity:1" /><path
     d="m 13.517,16.299 a 3.69,3.69 0 0 1 -3.216,1.09 3.521,3.521 0 0 0 1.384,-1.506 2.316,2.316 0 0 0 1.475,-2.151 v 0 a 2.279,2.279 0 0 0 -0.257,-1.04 3.586,3.586 0 0 1 1.58,0.352 3.69,3.69 0 0 1 -0.966,3.256 z"
     id="path2"
     style="fill:#fcc31b;fill-opacity:1" /><path
     d="m 12.138,11.812 a 2.3,2.3 0 0 0 -1.293,-0.395 v 0 a 2.312,2.312 0 0 0 -2.126,1.4 3,3 0 0 1 -0.619,-1.558 3.694,3.694 0 0 1 5.973,0.653 5.5,5.5 0 0 0 -1.935,-0.1 z"
     id="path3"
     style="fill:#e1392c;fill-opacity:1" /><path
     d="m 7.406,12.364 a 4.017,4.017 0 0 0 1.15,1.612 2.3,2.3 0 0 0 1.958,2.037 v 0 a 3,3 0 0 1 -1.5,0.934 3.689,3.689 0 0 1 -1.609,-4.583 z"
     id="path5"
     style="fill:#289947;fill-opacity:1" /></svg>
