<?xml version="1.0" encoding="UTF-8" standalone="no"?>
<svg
   width="24px"
   fill="#44739e"
   height="24px"
   viewBox="0 0 24 24"
   version="1.1"
   id="svg1"
   sodipodi:docname="chromecast-alt.svg"
   inkscape:version="1.4 (e7c3feb1, 2024-10-09)"
   xmlns:inkscape="http://www.inkscape.org/namespaces/inkscape"
   xmlns:sodipodi="http://sodipodi.sourceforge.net/DTD/sodipodi-0.dtd"
   xmlns="http://www.w3.org/2000/svg"
   xmlns:svg="http://www.w3.org/2000/svg">
  <defs
     id="defs1" />
  <sodipodi:namedview
     id="namedview1"
     pagecolor="#ffffff"
     bordercolor="#000000"
     borderopacity="0.25"
     inkscape:showpageshadow="2"
     inkscape:pageopacity="0.0"
     inkscape:pagecheckerboard="0"
     inkscape:deskcolor="#d1d1d1"
     inkscape:zoom="5.7"
     inkscape:cx="11.929825"
     inkscape:cy="11.929825"
     inkscape:window-width="1440"
     inkscape:window-height="851"
     inkscape:window-x="0"
     inkscape:window-y="38"
     inkscape:window-maximized="0"
     inkscape:current-layer="svg1" />
  <path
     d="m 13.284964,9.633 v -1.407 0 -1 h 0.254 l 0.325,-0.019 V 3.721 l -0.018,-0.321 h -0.39 V 2 h -2.362 v 1.4 h -0.083 l -0.325,0.018 V 6.9 l 0.019,0.325 h 0.56 v 1.315 0 1.093 a 4.955,4.955 0 0 0 -3.934,4.842 v 2.58 a 4.947,4.947 0 0 0 9.894,0 v -2.58 a 4.952,4.952 0 0 0 -3.94,-4.842 z"
     id="path1"
     style="fill:#1a1a1a" />
  <path
     d="m 15.038964,18.38 a 3.817,3.817 0 0 1 -3.326,1.127 3.64,3.64 0 0 0 1.43,-1.557 2.391,2.391 0 0 0 1.526,-2.225 v 0 a 2.359,2.359 0 0 0 -0.266,-1.076 3.725,3.725 0 0 1 1.634,0.364 3.819,3.819 0 0 1 -0.998,3.367 z"
     id="path6"
     style="fill:#fcc31c;fill-opacity:1" />
  <path
     d="m 8.659964,16.993 a 3.814,3.814 0 0 1 0.059,-2.683 4.149,4.149 0 0 0 1.189,1.667 2.383,2.383 0 0 0 2.023,2.107 v 0 a 3.1,3.1 0 0 1 -1.549,0.966 3.82,3.82 0 0 1 -1.722,-2.057 z"
     id="path5"
     style="fill:#269a47;fill-opacity:1" />
  <path
     d="m 13.711964,15.725 a 1.437,1.437 0 1 1 -1.437,-1.436 1.437,1.437 0 0 1 1.437,1.436 z"
     id="path4"
     style="fill:#1c72e9;fill-opacity:1" />
  <path
     d="m 12.692964,11.917 a 3.815,3.815 0 0 1 2.914,1.926 5.649,5.649 0 0 0 -2,-0.1 2.38,2.38 0 0 0 -1.337,-0.409 v 0 a 2.391,2.391 0 0 0 -2.2,1.451 3.093,3.093 0 0 1 -0.639,-1.618 3.819,3.819 0 0 1 3.262,-1.25 z"
     id="path3"
     style="fill:#e1392c;fill-opacity:1" />
  <path
     d="m 11.706964,2.679 h 1.137 V 3.4 h -1.137 z"
     id="path2"
     style="fill:#ffffff" />
</svg>
