<?xml version="1.0" encoding="UTF-8" standalone="no"?>
<svg
   role="img"
   viewBox="0 0 24 24"
   version="1.1"
   id="svg1"
   sodipodi:docname="cnn.svg"
   xml:space="preserve"
   inkscape:version="1.4 (e7c3feb1, 2024-10-09)"
   xmlns:inkscape="http://www.inkscape.org/namespaces/inkscape"
   xmlns:sodipodi="http://sodipodi.sourceforge.net/DTD/sodipodi-0.dtd"
   xmlns="http://www.w3.org/2000/svg"
   xmlns:svg="http://www.w3.org/2000/svg"><defs
     id="defs1" /><sodipodi:namedview
     id="namedview1"
     pagecolor="#ffffff"
     bordercolor="#000000"
     borderopacity="0.25"
     inkscape:showpageshadow="2"
     inkscape:pageopacity="0.0"
     inkscape:pagecheckerboard="0"
     inkscape:deskcolor="#d1d1d1"
     inkscape:zoom="14.04"
     inkscape:cx="12.037037"
     inkscape:cy="12.037037"
     inkscape:window-width="1512"
     inkscape:window-height="835"
     inkscape:window-x="0"
     inkscape:window-y="38"
     inkscape:window-maximized="0"
     inkscape:current-layer="svg1" /><title
     id="title1">CNN</title><path
     style="fill:#cc0000;fill-opacity:1"
     d="M 8.0026,13.9695 V 8.4857 c 0,-2.0638 2.6675,-3.0546 4.0788,-0.6563 0.1025,0.173 2.3253,4.002 2.3253,4.002 V 8.4856 c 0,-2.0638 2.6662,-3.0546 4.0775,-0.6563 0.1026,0.173 2.3253,4.002 2.3253,4.002 V 6.4705 H 22.14 v 8.9999 a 0.2705,0.2705 0 0 1 -0.1935,0.2743 c -0.141,0.0384 -0.2897,-0.0487 -0.3987,-0.2333 A 1360.4277,1360.4277 0 0 1 19.3072,11.6492 L 17.3126,8.2152 C 17.0332,7.7408 16.6166,7.6575 16.3205,7.7382 A 0.7986,0.7986 0 0 0 15.7372,8.524 v 6.9464 a 0.2718,0.2718 0 0 1 -0.1935,0.2743 c -0.1423,0.0384 -0.291,-0.0487 -0.3987,-0.2333 -0.0192,-0.032 -1.069,-1.8407 -2.083,-3.5892 A 6211.7971,6211.7971 0 0 0 10.9085,8.2112 C 10.6291,7.7357 10.2112,7.6537 9.9125,7.7344 A 0.7999,0.7999 0 0 0 9.328,8.5202 v 6.8002 a 0.3717,0.3717 0 0 1 -0.3487,0.3474 h -3.452 a 3.6712,3.6712 0 0 1 0,-7.3424 H 7.322 v 1.328 H 5.5427 a 2.3432,2.3432 0 1 0 0,4.6864 H 7.636 a 0.364,0.364 0 0 0 0.3666,-0.3705 z"
     id="path2" /><path
     style="fill:#cc0000;fill-opacity:1"
     d="m 23.9962,15.514 c 0,2.0638 -2.6676,3.0547 -4.0789,0.6576 -0.1012,-0.173 -2.3252,-4.0032 -2.3252,-4.0032 v 3.3457 c 0,2.0637 -2.6663,3.0546 -4.0776,0.6575 -0.1025,-0.173 -2.3253,-4.0032 -2.3253,-4.0032 v 3.1547 c 0,1.4318 -0.8498,2.2073 -2.1791,2.2073 H 5.5299 a 5.5299,5.5299 0 0 1 0,-11.0598 h 1.7946 v 1.328 H 5.5299 a 4.2019,4.2019 0 1 0 0,8.4038 h 3.4494 a 0.8973,0.8973 0 0 0 0.8794,-0.878 V 8.524 a 0.2692,0.2692 0 0 1 0.1935,-0.273 c 0.141,-0.0384 0.2897,0.0487 0.3987,0.2333 l 2.1522,3.7084 c 1.251,2.1573 2.0728,3.5738 2.083,3.5892 0.2807,0.4742 0.6986,0.5576 0.9973,0.4755 a 0.7973,0.7973 0 0 0 0.582,-0.787 v -6.945 a 0.2705,0.2705 0 0 1 0.191,-0.2744 c 0.1397,-0.0384 0.287,0.0487 0.3947,0.2333 l 1.9946,3.4366 2.242,3.8648 c 0.2191,0.3717 0.5242,0.5038 0.7896,0.5038 a 0.7691,0.7691 0 0 0 0.2063,-0.0282 0.7986,0.7986 0 0 0 0.591,-0.791 V 6.4707 H 24 Z"
     id="path1" /></svg>
