<?xml version="1.0" encoding="UTF-8" standalone="no"?>
<svg
   width="24px"
   fill="#44739e"
   height="24px"
   viewBox="0 0 24 24"
   version="1.1"
   id="svg1"
   sodipodi:docname="nbc-black.svg"
   xml:space="preserve"
   inkscape:version="1.4 (e7c3feb1, 2024-10-09)"
   xmlns:inkscape="http://www.inkscape.org/namespaces/inkscape"
   xmlns:sodipodi="http://sodipodi.sourceforge.net/DTD/sodipodi-0.dtd"
   xmlns="http://www.w3.org/2000/svg"
   xmlns:svg="http://www.w3.org/2000/svg"><defs
     id="defs1" /><sodipodi:namedview
     id="namedview1"
     pagecolor="#ffffff"
     bordercolor="#000000"
     borderopacity="0.25"
     inkscape:showpageshadow="2"
     inkscape:pageopacity="0.0"
     inkscape:pagecheckerboard="0"
     inkscape:deskcolor="#d1d1d1"
     inkscape:zoom="8.08"
     inkscape:cx="12.00495"
     inkscape:cy="11.943069"
     inkscape:window-width="1448"
     inkscape:window-height="846"
     inkscape:window-x="0"
     inkscape:window-y="38"
     inkscape:window-maximized="0"
     inkscape:current-layer="svg1" /><path
     d="m 4.687,8.717 v 0 l 6,4.068 L 7.755,6.1 A 2.1,2.1 0 1 0 4.687,8.717 Z"
     id="path11"
     style="fill:#ff7111;fill-opacity:1" /><path
     d="m 13.3,12.789 6.013,-4.072 v 0 A 2.1,2.1 0 1 0 16.233,6.1 Z"
     id="path10"
     style="fill:#059de0;fill-opacity:1" /><path
     d="m 7.775,5.115 2.961,6.778 1.045,-7.3 A 2.106,2.106 0 1 0 7.775,5.115 Z"
     id="path9"
     style="fill:#ef1541;fill-opacity:1" /><path
     d="m 12.75,4.494 c 0.317,0.016 0.484,0.1 0.084,0.267 v 0 a 0.749,0.749 0 0 0 -0.473,0.913 l 0.89,6.223 2.968,-6.784 A 2.111,2.111 0 1 0 12.191,4.5 Z"
     id="path8"
     style="fill:#6e55dc;fill-opacity:1" /><path
     d="M 10.991,13.449 5.256,9.585 a 2.1,2.1 0 1 0 -1.151,3.864 z"
     id="path7"
     style="fill:#fccc11;fill-opacity:1" /><path
     d="m 15.456,18.168 a 3.788,3.788 0 0 0 3.887,3.681 3.738,3.738 0 0 0 1.318,-0.279 v 0 -1.4 a 2.4,2.4 0 1 1 0,-4.007 v -1.404 a 3.386,3.386 0 0 0 -1.318,-0.273 3.788,3.788 0 0 0 -3.887,3.682 z"
     id="path6"
     style="fill:#1a1a1a" /><path
     d="M 7.744,18.587 3.35,14.575 v 7.032 h 1.427 v -3.859 l 4.394,4.013 V 14.727 H 7.744 Z"
     id="path5"
     style="fill:#1a1a1a" /><path
     d="m 19.89,9.241 a 2.1,2.1 0 0 0 -1.153,0.342 l -5.749,3.868 h 6.9 a 2.105,2.105 0 1 0 0,-4.21 z"
     id="path4"
     style="fill:#05ac3f;fill-opacity:1" /><path
     id="path1"
     inkscape:label="B"
     d="M 9.9902344 14.720703 L 9.9902344 21.613281 L 13.166016 21.613281 A 1.94 1.94 0 0 0 15.148438 19.638672 A 1.858 1.858 0 0 0 13.953125 17.929688 A 1.573 1.573 0 0 0 14.765625 16.486328 A 1.805 1.805 0 0 0 12.822266 14.720703 L 9.9902344 14.720703 z M 11.425781 15.761719 L 12.486328 15.761719 A 0.9 0.9 0 1 1 12.486328 17.554688 L 11.425781 17.554688 L 11.425781 15.761719 z M 12.716797 18.578125 A 1 1 0 0 1 12.716797 20.578125 L 11.425781 20.578125 L 11.425781 18.585938 L 12.716797 18.578125 z "
     style="fill:#000000" /></svg>
