<?xml version="1.0" encoding="UTF-8" standalone="no"?>
<svg
   width="24px"
   height="24px"
   viewBox="0 0 24 24"
   version="1.1"
   fill="#44739e"
   id="svg1"
   sodipodi:docname="panel-frontdoor-open-color.svg"
   inkscape:version="1.4 (e7c3feb1, 2024-10-09)"
   xmlns:inkscape="http://www.inkscape.org/namespaces/inkscape"
   xmlns:sodipodi="http://sodipodi.sourceforge.net/DTD/sodipodi-0.dtd"
   xmlns="http://www.w3.org/2000/svg"
   xmlns:svg="http://www.w3.org/2000/svg">
  <defs
     id="defs1" />
  <sodipodi:namedview
     id="namedview1"
     pagecolor="#ffffff"
     bordercolor="#000000"
     borderopacity="0.25"
     inkscape:showpageshadow="2"
     inkscape:pageopacity="0.0"
     inkscape:pagecheckerboard="0"
     inkscape:deskcolor="#d1d1d1"
     inkscape:zoom="21.28"
     inkscape:cx="11.865602"
     inkscape:cy="12.030075"
     inkscape:window-width="1448"
     inkscape:window-height="769"
     inkscape:window-x="0"
     inkscape:window-y="38"
     inkscape:window-maximized="0"
     inkscape:current-layer="svg1" />
  <path
     style="fill:#2a7fff;stroke-width:0.093985;stroke-linejoin:bevel;stroke-miterlimit:1;fill-opacity:1"
     d="m 11.76409,1.764788 c -0.495057,0.2873861 -0.293557,0.9149309 -0.333995,1.3837082 0,6.0463661 0,12.0927318 0,18.1390978 0.01191,0.449642 0.479842,0.673222 0.881935,0.59998 3.038024,-0.0071 6.079338,0.01426 9.115309,-0.01069 0.456254,-0.02722 0.618905,-0.527217 0.55422,-0.918237 0,-6.218672 0,-12.4373439 0,-18.6560154 -0.01191,-0.4496417 -0.479842,-0.6732217 -0.881935,-0.5999802 -3.038023,0.00714 -6.079338,-0.014259 -9.115309,0.01069 -0.07341,0.017149 -0.146816,0.034298 -0.220225,0.051447 z"
     id="path35" />
  <path
     id="path2"
     d="M 10.699219,1.3007812 V 2.2128906 L 1.34375,2.1972656 1.4003906,21.300781 v 0.798828 H 22.699219 V 1.3007812 Z m 1.300781,1 h 9.400391 V 21.300781 H 12 Z"
     style="display:inline;fill:#cccccc"
     inkscape:label="Door and Frame" />
  <path
     d="m 6.0996094,2.8007812 c 1.2,0 3.6011719,0.5996094 3.7011718,3.0996094 h -3 c -0.1,-0.5 -0.4011718,-0.7011718 -0.7011718,-0.7011718 -0.4,0 -0.6992188,0.4011718 -0.6992188,0.7011718 h -3 c 0,-2.3 2.4992188,-3.0996092 3.6992188,-3.0996094 z"
     id="path3"
     style="display:inline;fill:#999999"
     inkscape:label="Half Moon Frame" />
  <g
     id="g35">
    <path
       d="M 8.5996094,4 6.6992188,5.1992188 6.8007812,5.3007812 6.8691402,5.3964842 6.9003906,5.5 h 2.5 c 0,-0.3 -0.1226562,-0.6691406 -0.2929687,-0.9238281 C 8.8485823,4.1846897 8.5996094,4 8.5996094,4 Z"
       id="path7"
       style="display:inline;fill:#2a7fff"
       inkscape:label="Window 4" />
    <path
       d="m 6.4003906,3.0996094 v 2 L 8.3007812,3.6992188 c -0.3,-0.2000001 -0.6003906,-0.2984375 -0.9003906,-0.3984376 -0.3,-0.1 -0.7,-0.2011718 -1,-0.2011718 z"
       id="path5"
       style="display:inline;fill:#2a7fff"
       inkscape:label="Window 3" />
    <path
       d="m 5.8007812,3.0996094 c -0.6999999,0 -1.2535156,0.2386719 -1.8535156,0.6386718 l 1.8535156,1.3613282 z"
       id="path4"
       style="display:inline;fill:#2a7fff"
       inkscape:label="Window 2" />
    <path
       d="m 3.5996094,4 c 0,0 -0.2563264,0.2226153 -0.4667969,0.5605469 -0.1978613,0.3176853 -0.296875,0.6472656 -0.296875,0.9472656 L 5.3007812,5.5 5.3339844,5.4042969 5.3945312,5.328125 5.515625,5.2109375 Z"
       id="path6"
       style="display:inline;fill:#2a7fff"
       inkscape:label="Window 1" />
  </g>
  <g
     id="g34"
     inkscape:label="Level 1"
     style="fill:#999999">
    <path
       d="m 6.5,14.400391 h 3.4003906 v 6.199218 H 6.5 Z"
       id="path25"
       inkscape:label="Bottom Right 1"
       style="fill:#999999" />
    <path
       d="m 2.4003906,14.400391 h 3.4003906 v 6.199218 H 2.4003906 Z"
       id="path24"
       inkscape:label="Bottom Left 1"
       style="fill:#999999" />
    <path
       d="M 2.4003906,9.9003906 H 5.8007812 V 13.599609 H 2.4003906 Z"
       id="path16"
       style="fill:#999999"
       inkscape:label="Middle Left 1" />
    <path
       d="M 6.5,9.9003906 H 9.9003906 V 13.599609 H 6.5 Z"
       id="path17"
       style="fill:#999999"
       inkscape:label="Middle Right 1" />
    <path
       d="M 6.5,6.5996094 H 9.9003906 V 9.4003906 H 6.5 Z"
       id="path9"
       style="display:inline;fill:#999999"
       inkscape:label="Top Right 1" />
    <path
       d="M 2.4003906,6.5996094 H 5.8007812 V 9.4003906 H 2.4003906 Z"
       id="path8"
       style="display:inline;fill:#999999"
       inkscape:label="Top Left 1" />
  </g>
  <g
     id="g33"
     inkscape:label="Level 2"
     style="fill:#cccccc">
    <path
       d="m 6.7851562,14.593754 v 5.800781 H 9.5859375 V 14.59375 Z"
       id="path27"
       inkscape:label="Bottom Right 2"
       style="fill:#cccccc" />
    <path
       d="m 2.6757812,14.552734 v 5.800782 h 2.8007813 v -5.800782 z"
       id="path26"
       inkscape:label="Bottom Left 2"
       style="fill:#cccccc" />
    <path
       d="m 6.6992188,10.099609 v 3.300782 h 3 v -3.300782 z"
       id="path19"
       style="fill:#cccccc"
       inkscape:label="Middle Right 2" />
    <path
       d="m 2.5996094,10.099609 v 3.300782 h 3 v -3.300782 z"
       id="path18"
       style="fill:#cccccc"
       inkscape:label="Middle Left 2" />
    <path
       d="m 6.6992188,6.8007812 v 2.3984376 h 3 V 6.8007812 Z"
       id="path11"
       style="fill:#cccccc"
       inkscape:label="Top Right 2" />
    <path
       d="m 2.5996094,6.8007812 v 2.3984376 h 3 V 6.8007812 Z"
       id="path10"
       style="display:inline;fill:#cccccc"
       inkscape:label="Top Left 2" />
  </g>
  <g
     id="g32"
     inkscape:label="Level 3"
     style="fill:#999999">
    <path
       d="m 7.0390625,14.800785 h 2.3007813 v 5.298828 H 7.0390625 Z"
       id="path29"
       inkscape:label="Bottom Right 3"
       style="fill:#999999" />
    <path
       d="m 2.9003906,14.800785 h 2.2988282 v 5.298828 H 2.9003906 Z"
       id="path28"
       inkscape:label="Bottom Left 3"
       style="fill:#999999" />
    <path
       d="m 7.0996094,10.400391 h 2.2011718 v 2.699218 H 7.0996094 Z"
       id="path21"
       inkscape:label="Middle Right 3"
       style="fill:#999999" />
    <path
       d="m 3,10.400391 h 2.1992188 v 2.699218 H 3 Z"
       id="path20"
       inkscape:label="Middle Left 3"
       style="fill:#999999" />
    <path
       d="M 7.0996094,7.0996094 H 9.3007812 V 8.9003906 H 7.0996094 Z"
       id="path13"
       style="fill:#999999"
       inkscape:label="Top Right 3" />
    <path
       d="M 3,7.0996094 H 5.1992188 V 8.9003906 H 3 Z"
       id="path12"
       style="fill:#999999"
       inkscape:label="Top Left 3" />
  </g>
  <g
     id="g31"
     inkscape:label="Level 4"
     style="fill:#cccccc">
    <path
       d="m 7.3007812,15 v 4.900391 H 9.0996094 V 15 Z"
       id="path31"
       inkscape:label="Bottom Right 4"
       style="fill:#cccccc" />
    <path
       d="m 3.1679688,14.992192 v 4.90039 H 4.96875 v -4.90039 z"
       id="path30"
       inkscape:label="Bottom Left 4"
       style="fill:#cccccc" />
    <path
       d="m 7.3007812,10.5 v 2.400391 H 9.0996094 V 10.5 Z"
       id="path23"
       inkscape:label="Middle Right 4"
       style="fill:#cccccc" />
    <path
       d="m 3.1992188,10.5 v 2.400391 H 5 V 10.5 Z"
       id="path22"
       inkscape:label="Middle Left 4"
       style="fill:#cccccc" />
    <path
       d="M 7.3007812,7.2890625 V 8.6894531 H 9.1015625 V 7.2890625 Z"
       id="path14"
       style="fill:#cccccc"
       inkscape:label="Top Right 4" />
    <path
       d="M 3.1992188,7.296875 V 8.6972656 H 5 V 7.296875 Z"
       id="path15"
       style="fill:#cccccc"
       inkscape:label="Top Left 4" />
  </g>
</svg>
