<?xml version="1.0" encoding="UTF-8" standalone="no"?>
<svg
   width="24px"
   height="24px"
   viewBox="0 0 24 24"
   version="1.1"
   fill="#44739e"
   id="svg1"
   sodipodi:docname="panel-frontdoor-close-white.svg"
   inkscape:version="1.4 (e7c3feb1, 2024-10-09)"
   xmlns:inkscape="http://www.inkscape.org/namespaces/inkscape"
   xmlns:sodipodi="http://sodipodi.sourceforge.net/DTD/sodipodi-0.dtd"
   xmlns="http://www.w3.org/2000/svg"
   xmlns:svg="http://www.w3.org/2000/svg">
  <defs
     id="defs1" />
  <sodipodi:namedview
     id="namedview1"
     pagecolor="#ffffff"
     bordercolor="#000000"
     borderopacity="0.25"
     inkscape:showpageshadow="2"
     inkscape:pageopacity="0.0"
     inkscape:pagecheckerboard="0"
     inkscape:deskcolor="#d1d1d1"
     inkscape:zoom="17.278252"
     inkscape:cx="11.777812"
     inkscape:cy="13.051089"
     inkscape:window-width="1304"
     inkscape:window-height="756"
     inkscape:window-x="196"
     inkscape:window-y="64"
     inkscape:window-maximized="0"
     inkscape:current-layer="svg1" />
  <path
     d="m 10.7,1.3 v 20 H 1.4 v 0.8 H 22.7 V 1.3 Z"
     id="path1"
     style="fill:#b3b3b3"
     inkscape:label="Door Frame and Door" />
  <path
     d="M 12.1,21.3 V 2.4 h 9.4 v 19 z"
     id="path2"
     style="fill:#cccccc"
     inkscape:label="Door" />
  <path
     d="m 16.1,5.8 h -3 c 0,-2.3 2.5,-3.1 3.7,-3.1 1.2,0 3.6,0.6 3.7,3.1 h -3 C 17.438458,5.4593171 17.146087,5.2087134 16.8,5.2 16.444278,5.1821496 16.136764,5.4457333 16.1,5.8 Z"
     id="path29"
     inkscape:label="Window Frame"
     style="fill:#999999" />
  <path
     d="m 14.26,4 1.9,1.3 -0.1,0.1 -0.05,0.1 V 5.6 H 13.5 C 13.488303,5.282212 13.564424,4.9673483 13.72,4.69 13.875919,4.4309832 14.071649,4.1981319 14.3,4"
     id="path24"
     inkscape:label="Window 1"
     style="fill:#2a7fff" />
  <path
     d="m 19.3,4 -1.93,1.27 0.11,0.11 0.08,0.12 v 0.1 h 2.5 C 20.053359,5.3218183 19.98505,5.0485795 19.86,4.8 19.692814,4.5102311 19.491366,4.2416336 19.26,4"
     id="path23"
     inkscape:label="Window 4"
     style="fill:#2a7fff" />
  <path
     d="m 16.5,5.1 v 0 L 14.6,3.7 c 0.556091,-0.3915817 1.219873,-0.6011972 1.9,-0.6 z"
     id="path22"
     inkscape:label="Window 2"
     style="fill:#2a7fff" />
  <path
     d="m 17.1,3.1 c 0.341222,0.018192 0.678029,0.085553 1,0.2 0.317128,0.090869 0.620043,0.2254973 0.9,0.4 l -1.9,1.4 z"
     id="path21"
     inkscape:label="Window 3"
     style="fill:#2a7fff" />
  <g
     id="g37">
    <path
       d="m 16.5,20.5 h -3.4 v -6.2 h 3.4 z"
       id="path26"
       inkscape:label="Bottom Left"
       style="fill:#999999" />
    <path
       d="m 16.3,20.3 h -2.9 v -5.8 h 2.9 z"
       id="path19"
       inkscape:label="Bottom Left"
       style="fill:#cccccc" />
    <path
       d="M 13.7,20 H 16 v -5.3 h -2.3 z"
       id="path20"
       inkscape:label="Bottom Left"
       style="fill:#999999" />
    <path
       d="m 14,14.9 h 1.8 v 4.9 H 14 Z"
       id="path18"
       inkscape:label="Bottom Left"
       style="fill:#cccccc" />
  </g>
  <g
     id="g36">
    <path
       d="m 20.6,20.5 h -3.4 v -6.2 h 3.4 z"
       id="path30"
       inkscape:label="Bottom Right"
       style="fill:#999999" />
    <path
       d="m 20.3,20.3 h -2.9 v -5.8 h 2.9 z"
       id="path16"
       inkscape:label="Bottom Right"
       style="fill:#cccccc" />
    <path
       d="M 17.7,20 H 20 v -5.3 h -2.3 z"
       id="path17"
       inkscape:label="Bottom Right"
       style="fill:#999999" />
    <path
       d="m 18,14.9 h 1.8 v 4.9 H 18 Z"
       id="path15"
       inkscape:label="Bottom Right"
       style="fill:#cccccc" />
  </g>
  <g
     id="g35">
    <path
       d="M 20.6,13.5 H 17.2 V 9.8 h 3.4 z"
       id="path31"
       inkscape:label="Middle Right"
       style="fill:#999999" />
    <path
       d="m 20.4,13.3 h -3 V 10 h 3 z"
       id="path11"
       inkscape:label="Middle Right"
       style="fill:#cccccc" />
    <path
       d="M 17.8,13 H 20 v -2.7 h -2.2 z"
       id="path12"
       inkscape:label="Middle Right"
       style="fill:#999999" />
    <path
       d="m 18,10.5 h 1.8 v 2.4 H 18 Z"
       id="path5"
       inkscape:label="Middle Right"
       style="fill:#cccccc" />
  </g>
  <g
     id="g34">
    <path
       d="M 16.5,13.5 H 13.1 V 9.8 h 3.4 z"
       id="path27"
       inkscape:label="Middle Left"
       style="fill:#999999" />
    <path
       d="m 16.3,13.3 h -3 V 10 h 3 z"
       id="path13"
       inkscape:label="Middle Left"
       style="fill:#cccccc" />
    <path
       d="m 13.7,13 h 2.2 v -2.7 h -2.2 z"
       id="path14"
       inkscape:label="Middle Left"
       style="fill:#999999" />
    <path
       d="m 13.9,10.5 h 1.8 v 2.4 h -1.8 z"
       id="path6"
       inkscape:label="Middle Left"
       style="fill:#cccccc" />
  </g>
  <g
     id="g33">
    <path
       d="M 16.5,9.3 H 13.1 V 6.5 h 3.4 z"
       id="path28"
       inkscape:label="Top Left"
       style="fill:#999999" />
    <path
       d="m 16.3,9.1 h -3 V 6.7 h 3 z"
       id="path9"
       inkscape:label="Top Left"
       style="fill:#cccccc" />
    <path
       d="m 13.7,8.8 h 2.2 V 7 h -2.2 z"
       id="path10"
       inkscape:label="Top Left"
       style="fill:#999999" />
    <path
       d="m 13.9,7.2 h 1.8 v 1.4 h -1.8 z"
       id="path4"
       inkscape:label="Top  Left"
       style="fill:#cccccc" />
  </g>
  <g
     id="g32">
    <path
       d="M 20.6,9.3 H 17.2 V 6.5 h 3.4 z"
       id="path32"
       inkscape:label="Top Right"
       style="fill:#999999" />
    <path
       d="m 20.4,9.1 h -3 V 6.7 h 3 z"
       id="path7"
       inkscape:label="Top Right"
       style="fill:#cccccc" />
    <path
       d="M 17.8,8.8 H 20 V 7 h -2.2 z"
       id="path8"
       inkscape:label="Top Right"
       style="fill:#999999" />
    <path
       d="m 18,7.2 h 1.8 V 8.6 H 18 Z"
       id="path3"
       inkscape:label="Top Right"
       style="fill:#cccccc" />
  </g>
</svg>
